<svg width="383" height="383" viewBox="0 0 383 383" fill="none" xmlns="http://www.w3.org/2000/svg">
<path d="M211.954 323.071H179.046C162.593 323.071 150.011 308.818 150.011 290.179C150.011 289.082 150.011 286.889 150.011 285.793L156.786 234.261C157.754 228.779 161.625 224.393 166.464 224.393H224.536C229.375 224.393 233.246 228.779 234.214 234.261L240.989 285.793C242.925 303.336 232.279 320.879 216.793 323.071C214.857 323.071 212.921 323.071 211.954 323.071Z" fill="#F2EBD5"/>
<path d="M195.5 59.9286C131.621 59.9286 79.3572 119.136 79.3572 191.5C79.3572 222.2 100.65 246.321 127.75 246.321H263.25C290.35 246.321 311.643 222.2 311.643 191.5C311.643 119.136 259.379 59.9286 195.5 59.9286Z" fill="#F28A2E"/>
<mask id="mask0_3_46" style="mask-type:alpha" maskUnits="userSpaceOnUse" x="79" y="59" width="233" height="188">
<path d="M195.5 59.9286C131.621 59.9286 79.3572 119.136 79.3572 191.5C79.3572 222.2 100.65 246.321 127.75 246.321H263.25C290.35 246.321 311.643 222.2 311.643 191.5C311.643 119.136 259.379 59.9286 195.5 59.9286Z" fill="#F28A2E"/>
</mask>
<g mask="url(#mask0_3_46)">
<path d="M323 228C323 245.673 308.897 260 291.5 260C274.103 260 260 245.673 260 228C260 210.327 274.103 196 291.5 196C308.897 196 323 210.327 323 228Z" fill="#CC6B15"/>
<path d="M117.507 155.324C110.769 175.491 94.0454 188.077 80.1536 183.436C66.2617 178.794 60.4623 158.683 67.2004 138.516C73.9384 118.349 90.6622 105.763 104.554 110.404C118.446 115.045 124.245 135.157 117.507 155.324Z" fill="#CC6B15"/>
<path d="M298 94C298 116.091 280.763 134 259.5 134C238.237 134 221 116.091 221 94C221 71.9086 238.237 54 259.5 54C280.763 54 298 71.9086 298 94Z" fill="#CC6B15"/>
</g>
</svg>
